# xmcd
#
# Track frame offsets:
#	150
#	19114
#	34733
#	46733
#	63344
#	85769
#	117455
#	134989
#	153349
#	174196
#	191755
#	210918
#	226794
#
# Disc length: 3339 seconds
#
# Revision: 1
# Processed by: cddbd v1.5.2PL0 Copyright (c) Steve Scherf et al.
# Submitted via: audiograbber 1.81.03
#
DISCID=a40d090d
DTITLE=The`Kelly Brothers - Into The Water
DYEAR=2005
DGENRE=Blues
TTITLE0=Into The Water
TTITLE1=Hell Of A Mess
TTITLE2=Hard To Understand
TTITLE3=Brushing Off The Dirt
TTITLE4=Private Saloon
TTITLE5=Full Moon
TTITLE6=Wintergarden
TTITLE7=Time Takes You
TTITLE8=Will And Margaret
TTITLE9=Cobalt Town Blues
TTITLE10=New World Century
TTITLE11=Train Song
TTITLE12=No More Reason
EXTD=
EXTT0=
EXTT1=
EXTT2=
EXTT3=
EXTT4=
EXTT5=
EXTT6=
EXTT7=
EXTT8=
EXTT9=
EXTT10=
EXTT11=
EXTT12=
PLAYORDER=
